<?xml version="1.0" standalone="no"?>
<!DOCTYPE svg PUBLIC "-//W3C//DTD SVG 20010904//EN"
 "http://www.w3.org/TR/2001/REC-SVG-20010904/DTD/svg10.dtd">
<svg version="1.0" xmlns="http://www.w3.org/2000/svg"
 width="512.000000pt" height="512.000000pt" viewBox="0 0 512.000000 512.000000"
 preserveAspectRatio="xMidYMid meet">

<g transform="translate(0.000000,512.000000) scale(0.100000,-0.100000)"
fill="#FFDB6E" stroke="none">
<path d="M3970 4910 c-438 -53 -760 -412 -760 -850 0 -127 23 -230 84 -381 5
-11 -25 -46 -110 -124 l-117 -108 -18 47 c-22 54 -47 96 -68 114 -11 9 -110
12 -419 12 l-404 0 -28 -30 c-15 -16 -38 -54 -50 -85 l-22 -55 -37 32 c-20 17
-74 66 -119 108 l-84 78 22 42 c12 24 33 86 46 138 44 172 29 379 -38 540
-132 319 -436 522 -780 522 -247 0 -454 -85 -620 -256 -169 -175 -245 -376
-236 -630 5 -145 14 -164 83 -164 65 0 69 11 66 163 -2 159 17 246 80 367 133
256 421 409 701 371 237 -31 438 -173 542 -382 60 -120 80 -212 73 -348 -5
-108 -37 -241 -58 -241 -6 0 -67 53 -137 117 l-127 117 -11 76 c-7 42 -21 98
-32 123 -29 64 -101 138 -169 173 -53 27 -67 29 -163 29 -100 0 -108 -1 -168
-34 -76 -41 -135 -104 -170 -179 -23 -48 -27 -71 -27 -147 0 -77 4 -99 27
-147 58 -125 173 -206 308 -216 l65 -5 122 -135 c68 -74 120 -138 117 -143 -3
-5 -37 -19 -77 -31 -80 -25 -234 -31 -360 -14 -82 11 -107 -4 -107 -64 0 -50
25 -70 108 -86 149 -29 341 -10 480 48 62 26 76 28 87 17 7 -8 124 -135 259
-283 l246 -270 0 -178 0 -179 -256 -277 c-157 -170 -262 -276 -273 -275 -9 1
-55 16 -102 32 -303 107 -635 37 -867 -183 -176 -167 -262 -370 -262 -617 0
-420 288 -767 696 -839 46 -8 117 -11 195 -8 235 10 419 95 581 266 217 230
284 557 177 862 -16 47 -32 92 -35 100 -3 10 33 49 106 115 61 55 114 101 118
103 5 1 18 -22 31 -53 12 -30 32 -66 43 -80 l19 -25 420 0 419 0 30 47 c16 25
34 61 41 80 6 18 14 33 18 33 12 0 231 -201 231 -211 0 -6 -9 -27 -20 -48 -44
-87 -64 -197 -64 -346 1 -121 5 -152 28 -228 95 -317 343 -544 660 -604 98
-19 291 -13 381 12 147 40 337 159 426 267 139 168 203 346 202 563 -1 236
-79 428 -238 590 -129 130 -286 214 -461 245 -150 27 -361 2 -494 -57 l-45
-20 -62 58 c-46 44 -69 59 -90 59 -39 0 -73 -37 -73 -78 0 -27 29 -63 208
-258 l209 -226 -61 -60 c-34 -32 -62 -60 -63 -61 -1 -1 -144 128 -317 286
-263 240 -315 292 -311 310 11 53 25 148 31 220 l7 78 42 -45 c24 -27 51 -46
63 -46 59 0 102 52 84 101 -6 13 -51 68 -101 121 l-91 96 0 179 0 179 256 280
c158 172 262 278 272 277 9 -1 48 -13 85 -27 364 -139 790 -3 1006 319 246
369 164 885 -184 1152 -172 132 -406 198 -615 173z m250 -166 c144 -32 304
-136 395 -256 98 -129 145 -268 145 -428 0 -160 -47 -299 -145 -428 -92 -121
-248 -222 -400 -258 -99 -23 -275 -15 -368 16 -37 13 -66 26 -65 31 2 4 56 65
120 136 l117 128 85 12 c58 8 103 21 136 39 211 115 252 413 80 584 -141 141
-372 144 -514 5 -60 -58 -94 -130 -109 -226 l-11 -80 -129 -117 c-71 -64 -132
-118 -136 -120 -5 -1 -19 32 -32 75 -20 66 -24 98 -24 208 1 115 4 139 29 210
74 216 223 372 427 446 130 47 255 54 399 23z m-3053 -494 c140 -81 146 -278
11 -368 -36 -23 -51 -27 -118 -27 -67 0 -82 4 -118 27 -95 64 -126 193 -69
291 38 65 111 107 187 107 43 0 67 -7 107 -30z m3000 0 c183 -105 123 -383
-87 -398 -75 -6 -120 10 -169 59 -105 105 -85 266 42 339 40 23 64 30 107 30
43 0 67 -7 107 -30z m-2432 -715 c149 -137 271 -249 272 -250 1 0 -4 -43 -12
-95 -8 -52 -17 -123 -22 -158 l-8 -63 -355 387 -356 387 61 61 60 62 45 -41
c25 -23 167 -153 315 -290z m2126 210 c2 -2 -156 -177 -351 -390 l-355 -386
-17 133 c-9 73 -18 145 -20 160 -3 24 33 60 311 315 l314 289 57 -59 c32 -32
60 -60 61 -62z m-952 -329 c35 -95 81 -312 81 -388 0 -10 -51 -53 -131 -109
-72 -51 -136 -101 -143 -113 -9 -14 -26 -188 -50 -526 -20 -278 -39 -533 -43
-567 l-6 -63 -58 0 c-33 0 -59 1 -60 3 0 1 -20 256 -44 567 -24 311 -46 573
-50 583 -4 9 -66 58 -137 108 -71 50 -132 98 -136 107 -15 40 36 309 78 406
l19 46 330 0 330 0 20 -54z m-644 -700 c2 -6 20 -220 40 -476 19 -256 38 -493
41 -527 l6 -63 -61 0 c-70 0 -74 4 -109 125 -49 164 -54 219 -59 648 l-5 409
72 -53 c39 -28 73 -57 75 -63z m732 -331 c-4 -394 -12 -465 -68 -642 l-30 -93
-64 0 -64 0 5 33 c2 17 20 246 39 507 20 261 38 489 41 507 4 25 19 42 72 81
l67 49 3 -41 c2 -23 2 -203 -1 -401z m-995 -527 c3 -24 -33 -60 -311 -315
l-314 -289 -57 59 c-32 32 -59 61 -60 64 -1 2 157 178 352 389 l353 385 17
-133 c9 -73 18 -145 20 -160z m-729 -128 c37 -13 66 -26 65 -31 -2 -4 -56 -65
-120 -136 l-117 -129 -79 -10 c-97 -13 -163 -44 -222 -104 -143 -142 -143
-378 0 -520 141 -141 372 -144 514 -5 60 58 94 130 109 226 l11 80 129 117
c71 64 132 118 136 120 17 6 54 -155 59 -249 13 -280 -138 -535 -393 -659
-103 -51 -187 -70 -305 -70 -118 0 -202 19 -305 70 -190 92 -332 269 -380 472
-19 81 -19 235 1 318 58 250 268 461 522 525 89 22 288 14 375 -15z m2961 10
c123 -31 228 -92 321 -185 44 -44 95 -105 113 -137 75 -127 110 -289 93 -425
-36 -287 -210 -506 -476 -600 -74 -25 -92 -28 -225 -28 -142 0 -147 1 -235 35
-116 46 -186 93 -273 184 -118 125 -192 307 -192 476 0 68 23 190 46 245 15
36 15 36 39 18 13 -10 75 -65 138 -123 l114 -105 5 -70 c12 -172 151 -313 325
-331 153 -16 294 63 370 208 26 48 28 62 28 158 0 101 -1 108 -34 168 -61 113
-154 175 -289 195 l-78 12 -122 132 c-140 150 -139 139 -9 173 98 26 240 26
341 0z m-3090 -484 c81 -34 145 -145 132 -229 -17 -107 -110 -187 -216 -187
-76 0 -149 42 -187 107 -66 113 -14 263 107 312 37 14 126 13 164 -3z m3038
-21 c63 -44 101 -123 94 -193 -11 -116 -103 -202 -216 -202 -111 0 -203 85
-217 198 -10 87 50 185 137 221 14 6 55 10 92 8 56 -2 75 -8 110 -32z"/>
<path d="M381 3644 c-35 -44 -26 -77 38 -149 63 -71 110 -105 145 -105 49 0
86 52 69 98 -5 11 -43 57 -86 101 -67 70 -82 81 -112 81 -24 0 -39 -7 -54 -26z"/>
</g>
</svg>
