<?xml version="1.0" encoding="UTF-8"?>
<svg id="uuid-dc817f83-b5c7-404f-b9f7-22beffbe2151" data-name="Capa_1" xmlns="http://www.w3.org/2000/svg" xmlns:xlink="http://www.w3.org/1999/xlink" viewBox="0 0 95.31 95.33">
  <defs>
    <style>
      .uuid-5d816359-2fc4-4ce5-ad99-1ec46e404a50 {
        fill: #FFDB6E;
        fill-rule: evenodd;
      }
    </style>
  </defs>
  <path class="uuid-5d816359-2fc4-4ce5-ad99-1ec46e404a50" d="M73.51,72.43c-.8.44-1.15,1.01-1.15,1.88,0,1.73,2.19,2.55,3.45,1.28.84-.84.8-1.79-.12-2.71-.79-.79-1.35-.91-2.19-.45M20.72,72.39c-.3.12-.73.48-.96.8-1.39,1.99,1.32,4.12,3.04,2.39.78-.78.8-1.7.05-2.53-.68-.75-1.39-.97-2.14-.67M43.94,67.91c-.75.75-.8,1.65-.14,2.47.47.58.62.6,3.85.6s3.38-.02,3.85-.6c.66-.82.61-1.72-.14-2.47-.6-.6-.78-.63-3.71-.63s-3.11.03-3.71.63M27.83,25c-1.23.61-2.52,1.97-3.03,3.2-.29.69-.35,4.24-.34,19.52,0,21.03-.11,19.78,1.96,21.64,1.35,1.22,2.14,1.43,5.94,1.57,3.67.14,4.23.04,4.92-.89.44-.59.46-.78.2-1.43-.46-1.11-1.22-1.32-4.77-1.32q-3.19,0-3.94-.75l-.75-.75V29.47l.68-.71.68-.71h27.82l5.03,5.04,5.03,5.04v27.69l-.75.75q-.74.74-3.93.75c-1.75,0-3.49.11-3.85.25-.87.33-1.28,1.4-.89,2.33.44,1.06,1.57,1.32,5.18,1.19,3.5-.12,4.81-.55,6.2-2.02,1.78-1.88,1.72-1.37,1.81-16.92.05-9.09-.01-14.33-.18-14.91-.19-.66-1.79-2.41-6.21-6.82l-5.95-5.93h-14.9c-14.61,0-14.92.01-15.98.53M72.99,19.49c-1.48,1.48.06,3.95,2,3.22.96-.36,1.53-1.36,1.32-2.3-.34-1.54-2.19-2.05-3.33-.91M20.14,19.31c-1.41,1.17-.62,3.38,1.22,3.38,1.97,0,2.66-2.27,1.06-3.5-.59-.45-1.67-.39-2.29.12M17.12,14.55c-1.21.6-2.26,1.72-2.78,2.96-.28.67-.34,6.11-.34,30.11v29.29l.71,1.36c.52.99,1.05,1.57,1.96,2.13l1.24.77h29.71c32.78,0,30.29.12,31.97-1.56,1.69-1.69,1.56.81,1.56-31.97v-29.71l-.77-1.24c-.56-.91-1.14-1.44-2.13-1.96l-1.36-.71h-29.35q-29.31,0-30.43.54M24.1.53l-.67.53v9.32l-3.06.13c-2.78.11-3.2.2-4.68.93-1.94.96-3.53,2.59-4.43,4.56-.55,1.19-.67,1.91-.78,4.44l-.12,3.01-4.72.07-4.72.07-.5.67c-.54.72-.46,1.45.23,2.13.31.31,1.24.38,5.08.38h4.7v7.9H1.04l-.53.67c-.66.83-.67,1.39-.04,2.17.48.59.6.6,5.23.68l4.74.08v7.61h-4.6c-4.54,0-4.61,0-5.23.63-.79.79-.79,1.52,0,2.32.62.62.68.63,5.23.63h4.6v7.65h-4.6c-4.54,0-4.61,0-5.23.63-.76.76-.8,1.64-.11,2.38.5.53.71.56,5.23.56h4.71v7.61l-4.74.08c-4.62.08-4.75.1-5.23.69-.61.75-.62,1.6-.04,2.3.42.51.72.54,5.16.6l4.72.06.15,3.09c.13,2.68.24,3.28.85,4.52.9,1.83,2.57,3.5,4.43,4.41,1.3.64,1.79.73,4.44.81l2.98.09.08,4.71c.08,4.6.09,4.72.68,5.2.33.27.86.49,1.18.49s.85-.22,1.18-.49c.59-.48.6-.6.68-5.23l.08-4.74h7.61v4.72c0,4.38.04,4.75.51,5.23.73.73,1.88.66,2.53-.16.49-.62.53-1,.53-5.23v-4.55h7.65v4.72c0,4.38.04,4.75.51,5.23.66.66,1.89.66,2.55,0,.47-.47.51-.85.51-5.23v-4.72h7.65v4.55c0,4.22.04,4.6.53,5.23.65.82,1.8.9,2.53.16.47-.47.51-.85.51-5.23v-4.72h7.65v4.55c0,4.22.04,4.6.53,5.23.64.81,1.7.89,2.57.18.59-.48.6-.6.68-5.2l.08-4.71,2.98-.1c2.56-.08,3.18-.19,4.43-.77,1.85-.86,3.63-2.64,4.49-4.49.58-1.25.69-1.87.77-4.43l.1-2.98,4.71-.08c4.6-.08,4.72-.09,5.2-.68.7-.87.63-1.93-.18-2.57-.62-.49-1-.53-5.23-.53h-4.55v-7.65h4.72c4.38,0,4.75-.04,5.23-.51.73-.73.66-1.88-.16-2.53-.62-.49-1-.53-5.23-.53h-4.55v-7.65h4.72c4.38,0,4.75-.04,5.23-.51.66-.66.66-1.89,0-2.55-.47-.47-.85-.51-5.23-.51h-4.72v-7.65h4.55c4.22,0,4.6-.04,5.23-.53.82-.65.9-1.8.16-2.53-.47-.47-.85-.51-5.23-.51h-4.72v-7.61l4.74-.08c4.63-.08,4.75-.09,5.23-.68.27-.33.49-.86.49-1.18s-.22-.85-.49-1.18c-.48-.59-.6-.6-5.2-.68l-4.71-.08-.09-2.98c-.08-2.68-.17-3.13-.83-4.49-.95-1.94-2.59-3.57-4.43-4.42-1.23-.57-1.9-.68-4.42-.77l-2.96-.11-.18-4.82c-.17-4.51-.22-4.84-.73-5.19-.73-.51-1.52-.48-2.25.11-.59.48-.6.6-.69,5.23l-.08,4.74h-7.61v-4.71c0-4.51-.02-4.73-.56-5.23-.75-.69-1.62-.66-2.38.11-.62.62-.63.68-.63,5.23v4.6h-7.65v-4.6c0-4.54,0-4.61-.63-5.23-.34-.34-.87-.63-1.16-.63s-.81.28-1.16.63c-.62.62-.63.68-.63,5.23v4.6h-7.61l-.08-4.74c-.08-4.63-.09-4.75-.68-5.23-.77-.63-1.33-.62-2.17.04l-.67.53v9.39h-7.9v-4.65c0-2.56-.09-4.78-.19-4.93-.21-.32-1.18-.87-1.54-.87-.13,0-.54.24-.91.53"/>
</svg>