<?xml version="1.0" encoding="UTF-8"?>
<svg id="uuid-883ea7aa-bc48-4d48-94a8-9b7e9b848336" data-name="Capa_1" xmlns="http://www.w3.org/2000/svg" xmlns:xlink="http://www.w3.org/1999/xlink" viewBox="0 0 74.85 74.97">
  <defs>
    <style>
      .uuid-35eff0f0-639b-4fd1-9302-603c5422dbc5 {
        fill: #FFDB6E;
        fill-rule: evenodd;
      }
    </style>
  </defs>
  <path class="uuid-35eff0f0-639b-4fd1-9302-603c5422dbc5" d="M3.41,66.84c-.65.37-.7.56-.7,2.69,0,1.71.05,2.08.36,2.36.34.31,3.01.33,34.32.33,33.68,0,33.95,0,34.35-.4.35-.35.4-.67.4-2.38,0-3.11,4.7-2.73-34.59-2.79-24.95-.03-33.85.01-34.15.18M43.45,42.66c-.55.2-1.34.77-2.04,1.47-.91.91-1.21,1.38-1.48,2.31-1.65,5.67,5.09,9.81,9.49,5.84,2.29-2.07,2.33-6.04.09-8.2-1.65-1.59-4.04-2.15-6.06-1.41M42.83,40.07c-3.39,1.28-5.52,4.04-5.75,7.46-.27,4.01,1.94,7.27,5.88,8.65.93.32,1.54.4,2.79.34,3.46-.17,6.3-2.16,7.55-5.31.37-.94.46-1.55.47-3.17,0-1.84-.05-2.12-.63-3.36-.89-1.87-2.2-3.21-4.05-4.12-1.39-.69-1.66-.75-3.43-.79-1.41-.03-2.16.05-2.83.3M5.63,37.95c-.42.61-.4,2.01.04,2.52.54.63,1.12.71,1.72.23.46-.36.53-.57.53-1.48,0-.77-.1-1.15-.37-1.39-.54-.49-1.55-.43-1.93.11M44.16,32.74c-.04.14-.22,1.01-.39,1.93-.17.93-.41,1.79-.52,1.92-.11.13-.56.35-1,.48-.44.13-1.35.5-2.03.82s-1.38.53-1.56.46c-.18-.07-1-.57-1.81-1.11l-1.48-.99-.9.9-.9.9.9,1.28c1.47,2.08,1.45,1.99.79,3.53-.32.74-.69,1.69-.82,2.09-.13.4-.36.84-.5.96-.15.12-1.07.36-2.05.53-.98.17-1.85.38-1.94.47-.09.09-.13.69-.1,1.33l.06,1.18,1.85.33c1.02.18,1.98.44,2.15.58.16.14.45.71.64,1.29.19.57.55,1.46.81,1.98.56,1.12.51,1.32-.84,3.25l-.95,1.36.9.9.9.9,1.62-1.12c.89-.61,1.72-1.12,1.85-1.12s.69.24,1.26.52c.57.29,1.47.65,2,.81,1.21.36,1.46.75,1.78,2.84l.26,1.66,1.31-.06,1.31-.06.32-1.74c.18-.96.43-1.88.57-2.05.14-.17.75-.49,1.35-.72.6-.23,1.45-.59,1.88-.81.43-.22.93-.4,1.11-.4s1.06.5,1.95,1.12l1.62,1.12.89-.89.89-.89-1.13-1.64c-.62-.9-1.13-1.75-1.13-1.88,0-.13.26-.78.57-1.44.31-.66.68-1.54.81-1.94.34-1.03.62-1.2,2.59-1.56l1.74-.32.06-1.32.06-1.32-1.84-.33c-1.01-.18-1.96-.43-2.1-.55-.15-.12-.42-.69-.61-1.26-.19-.57-.55-1.46-.81-1.98-.26-.52-.47-1.03-.47-1.13s.49-.94,1.1-1.86l1.1-1.68-.87-.88-.87-.88-1.48.99c-.81.55-1.63,1.04-1.81,1.11-.18.07-.77-.08-1.3-.33s-1.46-.61-2.04-.81c-1.28-.42-1.54-.79-1.84-2.62-.36-2.21-.28-2.11-1.64-2.11-.78,0-1.22.09-1.27.25M50.27,20.44c0,1.47.45,1.81,2.35,1.81,1.3,0,1.54-.06,1.97-.49.38-.38.49-.7.49-1.4v-.91h-4.82v1ZM61.95,9.76l.06,1.96h8.96l.59-.66c.79-.88.79-1.79,0-2.63l-.58-.62h-9.08l.06,1.96ZM19.21,9.76l.06,1.96h24.08l.06-1.96.06-1.96h-24.31l.06,1.96ZM46.91,3.48l-.75.69-.05,5.38c-.08,7.58-.33,7.29,6.51,7.29,4.82,0,5.32-.1,6.18-1.27.4-.54.42-.82.42-5.82,0-7.36.38-6.96-6.72-6.96h-4.83l-.75.69ZM4.21,3.45c-.88.88-.94,1.43-.87,7.1.06,4.64.07,4.65.57,5.19.98,1.05,1.25,1.1,6.02,1.1s5.53-.11,6.22-1.24c.38-.62.4-1,.4-5.88,0-4.82-.03-5.26-.39-5.81-.7-1.07-.91-1.1-6.3-1.11h-4.99s-.66.66-.66.66ZM5.05.2c-1.66.33-3.2,1.56-3.88,3.09-.3.68-.37,1.56-.43,5.75-.08,5.5.05,6.62.96,8.06.62.97,2.34,2.14,3.16,2.14h.45v12.37l.46.44c.58.54,1.22.56,1.74.03.38-.38.4-.67.4-6.52v-6.12h4.01v44.55h-4.01v-8.5c0-7.98-.02-8.52-.37-8.83-.5-.45-1.35-.42-1.84.07-.39.39-.4.67-.4,8.8v8.4l-1.2.11c-1.62.15-2.75.8-3.51,2.04C.03,67.03,0,67.17,0,69.3c0,1.31.1,2.53.26,2.95.33.93,1.5,2.1,2.43,2.43,1.13.4,68.66.38,69.66-.03.93-.38,1.55-.95,2.08-1.92.38-.7.43-1.12.43-3.31,0-1.98-.07-2.64-.34-3.13-.48-.88-1.63-1.83-2.51-2.07-.49-.13-4.67-.21-11.66-.21h-10.91s.14-1.05.14-1.05c.16-1.2.27-1.34,1.45-1.85l.85-.37,1.21.85c2.35,1.65,3.1,1.56,5.23-.57,2.13-2.13,2.21-2.84.6-5.21l-.82-1.21.33-.86c.45-1.16.58-1.27,2.03-1.52,2.59-.45,3.13-1.08,3.24-3.68.08-2.13,0-2.56-.68-3.36-.54-.64-1.08-.86-2.93-1.23-1.11-.22-1.14-.24-1.56-1.25l-.43-1.03.82-1.18c1.63-2.32,1.52-3.2-.69-5.33-1.06-1.03-1.66-1.45-2.18-1.55-.94-.18-1.29-.05-2.85,1.02l-1.3.89-1.07-.47-1.07-.47-.26-1.52c-.42-2.52-1.25-3.15-4.09-3.15-2.64,0-3.59.69-3.98,2.91-.32,1.81-.33,1.83-1.41,2.28l-1,.42-1.52-1c-2.2-1.43-2.8-1.34-4.93.77-1.41,1.4-1.88,2.31-1.67,3.22.07.3.53,1.13,1.02,1.85l.89,1.31-.45,1.06c-.29.69-.59,1.08-.85,1.14-.22.05-.93.19-1.56.31-1.28.25-2.17.87-2.55,1.78-.16.38-.22,1.29-.18,2.5.1,2.74.63,3.34,3.32,3.79l1.32.22.48,1.06.48,1.06-.91,1.37c-.5.75-.96,1.65-1.03,2-.19.93.36,1.88,1.91,3.35,1.97,1.86,2.75,1.91,5,.32l1.21-.86.86.37c1.19.51,1.3.66,1.46,1.85l.14,1.05H14.75V19.24h.41c1.56,0,4.01-2.63,4.01-4.31v-.51h24.28v.54c0,1.39,1.79,3.67,3.21,4.1l.75.23.1,1.35c.06.88.25,1.63.55,2.15.48.85,1.76,1.82,2.67,2,.55.11.55.13.55,1.75,0,1.97.28,2.53,1.28,2.53s1.3-.46,1.37-2.39l.06-1.68.78-.27c1.9-.65,2.92-2.09,2.92-4.11v-1.13s1.1-.54,1.1-.54c1.43-.7,2.45-1.9,2.86-3.37l.32-1.15h4.29c2.47,0,4.67-.09,5.17-.22,1.11-.28,2.45-1.41,2.93-2.48.84-1.84.2-4.45-1.38-5.65-1.19-.9-2.31-1.08-6.9-1.08h-4.15l-.23-.92c-.5-1.98-2.09-3.48-4.16-3.91-.69-.14-2.74-.2-5.55-.16-4.14.06-4.52.1-5.46.53-.55.25-1.26.7-1.58,1-.65.61-1.53,2.32-1.53,3v.45h-24.28v-.45c0-.75-.9-2.44-1.63-3.05C16,.2,15.5.09,10.53.05c-2.48-.02-4.95.05-5.48.15"/>
</svg>