<?xml version="1.0" standalone="no"?>
<!DOCTYPE svg PUBLIC "-//W3C//DTD SVG 20010904//EN"
 "http://www.w3.org/TR/2001/REC-SVG-20010904/DTD/svg10.dtd">
<svg version="1.0" xmlns="http://www.w3.org/2000/svg"
 width="512.000000pt" height="512.000000pt" viewBox="0 0 512.000000 512.000000"
 preserveAspectRatio="xMidYMid meet">

<g transform="translate(0.000000,512.000000) scale(0.100000,-0.100000)"
fill="#FFDB6E" stroke="none">
<path d="M2418 4881 c-281 -92 -407 -397 -277 -668 50 -104 203 -222 312 -239
l37 -7 0 -208 0 -208 -663 -3 -662 -3 -67 -33 c-74 -36 -132 -95 -170 -170
-22 -45 -23 -57 -26 -309 l-3 -262 -197 -3 c-192 -3 -199 -4 -253 -31 -67 -32
-142 -109 -172 -175 -22 -47 -22 -51 -22 -677 l0 -630 26 -55 c32 -69 92 -131
161 -167 52 -28 56 -28 255 -31 l202 -3 3 -262 3 -262 28 -56 c32 -67 109
-142 175 -172 47 -22 50 -22 804 -25 750 -3 758 -2 778 18 27 27 27 81 -1 106
-20 18 -51 19 -764 24 l-743 5 -43 30 c-23 17 -53 50 -66 74 l-23 44 0 1359
c0 1317 1 1360 19 1396 25 48 66 87 113 106 33 14 188 16 1375 16 949 0 1350
-3 1378 -11 52 -15 119 -82 134 -134 8 -28 11 -429 11 -1380 0 -1285 -1 -1342
-19 -1380 -41 -88 -88 -117 -202 -125 -98 -7 -115 -16 -125 -65 -4 -23 0 -38
17 -59 22 -28 22 -28 123 -24 79 3 111 8 148 26 74 36 134 96 170 170 l33 66
3 258 3 257 197 3 c191 3 199 4 247 30 68 35 128 98 162 166 23 47 28 73 31
155 4 91 3 100 -19 123 -30 32 -72 31 -104 -1 -22 -21 -25 -33 -25 -95 0 -109
-33 -170 -115 -213 -35 -18 -62 -21 -207 -25 l-168 -4 0 741 0 742 178 -3
c176 -3 179 -3 218 -30 21 -15 50 -44 64 -65 l25 -36 5 -390 5 -389 24 -19
c30 -25 62 -24 95 2 l27 21 -3 402 -3 401 -28 56 c-32 67 -109 142 -175 172
-42 20 -67 22 -239 25 l-192 4 -3 256 c-3 254 -3 258 -30 314 -34 73 -103 142
-176 176 l-57 27 -667 3 -668 3 0 208 0 208 38 7 c21 3 70 22 109 41 119 59
211 178 243 314 17 73 8 201 -20 273 -44 116 -150 223 -267 269 -82 31 -235
36 -315 10z m288 -163 c60 -31 118 -93 148 -157 16 -35 21 -65 21 -131 0 -73
-4 -92 -28 -137 -57 -110 -153 -173 -274 -181 -64 -4 -78 -1 -136 25 -76 36
-127 84 -164 156 -24 45 -28 64 -28 137 0 66 5 96 22 132 37 81 112 148 203
182 8 3 53 4 100 3 68 -3 95 -9 136 -29z m-1806 -2839 l0 -741 -172 4 c-162 3
-176 5 -218 28 -24 14 -58 45 -75 68 l-30 44 -3 597 -2 598 32 48 c20 30 50
58 77 72 41 21 56 23 218 23 l173 0 0 -741z"/>
<path d="M1831 2704 c-150 -53 -243 -184 -243 -344 0 -145 76 -267 204 -326
56 -26 74 -29 158 -29 83 0 102 3 150 27 156 76 238 252 196 416 -31 122 -126
223 -241 257 -62 19 -168 18 -224 -1z m232 -170 c143 -101 113 -317 -52 -373
-74 -24 -157 -3 -215 55 -76 77 -78 207 -2 287 69 73 189 87 269 31z"/>
<path d="M3073 2706 c-103 -33 -179 -102 -225 -202 -19 -40 -23 -66 -23 -144
0 -82 4 -103 27 -152 34 -73 103 -142 176 -176 49 -23 70 -27 152 -27 82 0
103 4 151 26 79 37 133 90 171 167 30 61 33 75 33 162 0 82 -4 103 -26 151
-37 79 -90 133 -166 171 -54 26 -79 32 -146 35 -51 2 -98 -2 -124 -11z m185
-152 c78 -32 132 -111 132 -194 0 -113 -97 -210 -210 -210 -146 0 -250 155
-194 288 44 107 168 160 272 116z"/>
<path d="M1675 1571 c-90 -32 -165 -92 -223 -176 -71 -105 -82 -284 -25 -406
53 -114 137 -190 252 -229 61 -20 73 -20 904 -18 l842 3 65 31 c327 157 334
612 12 772 l-76 37 -850 2 c-802 2 -854 1 -901 -16z m235 -401 l0 -280 -77 0
c-61 0 -89 5 -128 24 -148 69 -206 231 -134 375 54 107 144 156 297 160 l42 1
0 -280z m570 0 l0 -280 -210 0 -210 0 0 280 0 280 210 0 210 0 0 -280z m590 0
l0 -280 -220 0 -220 0 0 280 0 280 220 0 220 0 0 -280z m352 248 c92 -39 168
-154 168 -253 0 -98 -72 -208 -165 -251 -39 -19 -67 -24 -127 -24 l-78 0 0
281 0 282 77 -7 c42 -4 99 -17 125 -28z"/>
<path d="M2923 360 c-46 -19 -56 -78 -20 -114 l24 -24 297 -1 c282 0 298 1
316 19 30 30 26 83 -6 109 -26 20 -38 21 -308 20 -154 0 -291 -4 -303 -9z"/>
</g>
</svg>
